# xmcd
# 
# Track frame offsets:
#     150
#     14862
#     32275
#     47010
#     63140
#     81085
#     97062
#     110755
#     126732
#     144844
#     160275
# 
# Disc length: 2380
# 
# Revision: 8
# Processed by: cddbd v1.5.2PL0 Copyright (c) Steve Scherf et al.
# Submitted via: fre:ac v1.0.31
# 
DISCID=95094a0b
DTITLE=Sara Evans - Slow Me Down
DYEAR=2014
DGENRE=Country
TTITLE0=Slow Me Down
TTITLE1=Not Over You w Gavin DeGraw
TTITLE2=Put My Heart Down
TTITLE3=Can't Stop Loving You w Isaac Slade
TTITLE4=You Never Know
TTITLE5=If I Run
TTITLE6=Sweet Spot
TTITLE7=Good Love Is Hard To Find
TTITLE8=Better Off w Vince Gill
TTITLE9=Gotta Have You
TTITLE10=Revival
EXTD=2014 YEAR: 2014
EXTT0=
EXTT1=
EXTT2=
EXTT3=
EXTT4=
EXTT5=
EXTT6=
EXTT7=
EXTT8=
EXTT9=
EXTT10=
PLAYORDER=
